<svg width="48" height="64" viewBox="0 0 48 64" fill="none" xmlns="http://www.w3.org/2000/svg">
<path d="M46.1744 1.87397L43.3114 0.221091C42.832 -0.092784 42.1914 -0.0841591 41.4873 0.322341L3.66776 22.1573C2.18263 23.0148 0.97876 25.3151 0.97876 27.2952V60.0038C0.97876 61.1737 1.39913 61.9696 2.04913 62.2487L4.63863 63.7437L46.1744 1.87397Z" fill="url(#paint0_linear_52_6281)"/>
<path d="M44.3322 41.8422L6.51273 63.6772C5.02761 64.5345 3.82373 63.6244 3.82373 61.6443V28.9357C3.82373 26.9555 5.02761 24.6552 6.51273 23.7978L44.3322 1.9628C45.8174 1.10542 47.0212 2.01555 47.0212 3.99567V36.7043C47.0212 38.6844 45.8174 40.9848 44.3322 41.8422Z" fill="url(#paint1_linear_52_6281)"/>
<path d="M42.9314 14.3528L7.91382 34.5703V29.2933L42.9314 9.07593V14.3528Z" fill="white"/>
<path d="M22.5776 38.4426L7.91382 46.9088V42.9288L22.5776 34.4626V38.4426Z" fill="white"/>
<path d="M22.5776 45.6189L7.91382 54.085V50.105L22.5776 41.6389V45.6189Z" fill="white"/>
<path d="M32.9057 29.6008C32.9057 32.2565 31.7502 34.5859 29.9257 35.6393C28.1012 36.6927 26.9456 35.6975 26.9456 33.0418C26.9456 30.4064 28.1011 28.0769 29.9257 27.0235C31.7502 25.9703 32.9057 26.9654 32.9057 29.6008ZM28.6637 32.0499C28.6637 33.5095 29.1349 34.1294 29.9257 33.6729C30.7163 33.2164 31.1876 32.0524 31.1876 30.5928C31.1876 29.1333 30.7163 28.5337 29.9257 28.99C29.1351 29.4467 28.6637 30.5904 28.6637 32.0499ZM39.3219 21.6597L31.7351 40.2508L29.1959 41.7168L36.7828 23.1257L39.3219 21.6597ZM41.6329 30.2993C41.6329 32.955 40.4774 35.2844 38.6529 36.3378C36.8284 37.3912 35.6728 36.396 35.6728 33.7403C35.6728 31.1049 36.8283 28.7754 38.6529 27.722C40.4774 26.6687 41.6329 27.6638 41.6329 30.2993ZM37.3909 32.7483C37.3909 34.2079 37.8622 34.8279 38.6529 34.3713C39.4436 33.9148 39.9148 32.7507 39.9148 31.291C39.9148 29.8315 39.4436 29.2319 38.6529 29.6883C37.8623 30.145 37.3909 31.2888 37.3909 32.7483Z" fill="white"/>
<defs>
<linearGradient id="paint0_linear_52_6281" x1="12.3601" y1="33.1931" x2="15.7911" y2="27.2503" gradientUnits="userSpaceOnUse">
<stop stop-color="#AB2C37"/>
<stop offset="1" stop-color="#FF7A85"/>
</linearGradient>
<linearGradient id="paint1_linear_52_6281" x1="25.4225" y1="54.4176" x2="25.4225" y2="-14.7857" gradientUnits="userSpaceOnUse">
<stop stop-color="#FF4757"/>
<stop offset="1" stop-color="#FF7A85"/>
</linearGradient>
</defs>
</svg>
