<svg width="53" height="64" viewBox="0 0 53 64" fill="none" xmlns="http://www.w3.org/2000/svg">
<path d="M52.7045 47.2027V14.5498L0.295532 16.7972V49.4502C0.295407 50.1984 0.665658 50.9466 1.40616 51.3742L22.1675 63.3608C23.6442 64.2133 25.4633 64.2133 26.9399 63.3608L51.5939 49.1268C52.3344 48.6992 52.7047 47.9509 52.7045 47.2027Z" fill="url(#paint0_linear_52_6291)"/>
<path d="M1.40628 14.8734L26.0602 0.639375C27.5367 -0.213125 29.3559 -0.213125 30.8324 0.639375L51.5938 12.626C53.0747 13.481 53.0747 15.6185 51.5938 16.4735L26.9399 30.7074C25.4634 31.5599 23.6442 31.5599 22.1677 30.7074L1.40628 18.7209C-0.0747178 17.8659 -0.0747178 15.7284 1.40628 14.8734Z" fill="url(#paint1_linear_52_6291)"/>
<path d="M9.40015 10.2579L35.8796 25.5459L42.9038 21.4905L16.4241 6.20264L9.40015 10.2579Z" fill="#DEA861"/>
<path d="M13.5983 7.83203L40.0778 23.12L38.7019 23.9144L12.2224 8.62641L13.5983 7.83203Z" fill="#CC8241"/>
<path d="M50.9505 24.9048L48.6216 21.4114L46.2927 27.5939L47.519 26.8859V28.9801L49.7242 27.707V25.6128L50.9505 24.9048Z" fill="#5D3645"/>
<path d="M50.9505 27.5249L46.2927 30.214V31.3468L50.9505 28.6577V27.5249Z" fill="#5D3645"/>
<path d="M35.8796 25.5461V31.3468L42.9038 27.2915V21.4907L35.8796 25.5461Z" fill="#CC8241"/>
<defs>
<linearGradient id="paint0_linear_52_6291" x1="20.3649" y1="39.2749" x2="27.5642" y2="39.2749" gradientUnits="userSpaceOnUse">
<stop stop-color="#CC8241"/>
<stop offset="1" stop-color="#DEA861"/>
</linearGradient>
<linearGradient id="paint1_linear_52_6291" x1="11.9094" y1="7.2495" x2="38.8705" y2="22.8155" gradientUnits="userSpaceOnUse">
<stop stop-color="#DEA861"/>
<stop offset="1" stop-color="#EBCBA0"/>
</linearGradient>
</defs>
</svg>
