<svg width="24" height="24" viewBox="0 0 24 24" fill="none" xmlns="http://www.w3.org/2000/svg">
<path d="M13.9933 3.19949L13.9936 3.19968L19.7535 7.22961C19.7535 7.22964 19.7536 7.22966 19.7536 7.22968C20.2228 7.55815 20.6671 8.09671 20.9945 8.72389C21.3219 9.35111 21.5102 10.0243 21.5102 10.6V17.38C21.5102 19.6539 19.6641 21.5 17.3902 21.5H6.61023C4.33778 21.5 2.49023 19.6453 2.49023 17.37V10.47C2.49023 9.93556 2.66062 9.29648 2.95881 8.69086C3.25686 8.08551 3.6613 7.55688 4.08775 7.22425L4.08786 7.22417L9.09648 3.31524C9.0967 3.31507 9.09692 3.3149 9.09714 3.31473C10.434 2.27943 12.603 2.22541 13.9933 3.19949ZM12.0002 19.25C12.6864 19.25 13.2502 18.6861 13.2502 18V15C13.2502 14.3139 12.6864 13.75 12.0002 13.75C11.3141 13.75 10.7502 14.3139 10.7502 15V18C10.7502 18.6861 11.3141 19.25 12.0002 19.25Z" fill="white" stroke="white"/>
</svg>
