<svg width="20" height="20" viewBox="0 0 20 20" fill="none" xmlns="http://www.w3.org/2000/svg">
<path d="M11.9931 1.19949L11.9934 1.19968L17.7533 5.22961C17.7533 5.22964 17.7533 5.22966 17.7534 5.22968C18.2226 5.55815 18.6668 6.09671 18.9943 6.72389C19.3217 7.35111 19.51 8.02427 19.51 8.6V15.38C19.51 17.6539 17.6638 19.5 15.39 19.5H4.60999C2.33754 19.5 0.48999 17.6453 0.48999 15.37V8.47C0.48999 7.93556 0.660377 7.29648 0.958565 6.69086C1.25662 6.08551 1.66106 5.55688 2.08751 5.22425L2.08761 5.22417L7.09624 1.31524C7.09645 1.31507 7.09667 1.3149 7.09689 1.31473C8.43373 0.279434 10.6028 0.225409 11.9931 1.19949ZM9.99999 17.25C10.6861 17.25 11.25 16.6861 11.25 16V13C11.25 12.3139 10.6861 11.75 9.99999 11.75C9.31385 11.75 8.74999 12.3139 8.74999 13V16C8.74999 16.6861 9.31385 17.25 9.99999 17.25Z" fill="#1C1C1E" stroke="#1C1C1E"/>
</svg>
